Naomi Watts ... Maria
Ewan McGregor ... Henry
Tom Holland ... Lucas
Samuel Joslin ... Thomas
Oaklee Pendergast ... Simon
Marta Etura ... Simone

Dane techniczne:

Subtitles Muxed:Spanish, Polish

Format : Matroska
Format version : Version 4 / Version 2
File size : 6.55 GiB
Duration : 1h 53mn
Overall bit rate : 8 258 Kbps
Writing library : libebml v1.3.0 + libmatroska v1.4.0
Attachment : Yes
Video #1
ID : 1
Format : AVC
Format/Info : Advanced Video Codec
Format profile : High@L4.1
Format settings, CABAC : Yes
Format settings, ReFrames : 5 frames
Codec ID : V_MPEG4/ISO/AVC
Duration : 1h 53mn
Bit rate : 6 743 Kbps
Width : 1 280 pixels
Height : 542 pixels
Display aspect ratio : 2.35:1
Frame rate mode : Constant
Frame rate : 24.000 fps
Color space : YUV
Chroma subsampling : 4:2:0
Bit depth : 8 bits
Scan type : Progressive
Bits/(Pixel*Frame) : 0.405
Stream size : 5.22 GiB (80%)
Writing library : x264
Language : English
Default : Yes
Forced : No
Audio #2
ID : 2
Format : DTS
Format/Info : Digital Theater Systems
Mode : 16
Format settings, Endianness : Big
Codec ID : A_DTS
Duration : 1h 53mn
Bit rate mode : Constant
Bit rate : 1 509 Kbps
Channel(s) : 6 channels
Channel positions : Front: L C R, Side: L R, LFE
Sampling rate : 48.0 KHz
Bit depth : 24 bits
Compression mode : Lossy
Stream size : 1.20 GiB (18%)
Language : English
Default : Yes
Forced : No
Text #3
ID : 3
Format : VobSub
Muxing mode : zlib
Codec ID : S_VOBSUB
Codec ID/Info : The same subtitle format used on DVDs
Language : Spanish
Default : No
Forced : No
Text #4
ID : 4
Format : VobSub
Muxing mode : zlib
Codec ID : S_VOBSUB
Codec ID/Info : The same subtitle format used on DVDs
Language : Spanish
Default : No
Forced : No
Text #5
ID : 5
Format : UTF-8
Codec ID : S_TEXT/UTF8
Codec ID/Info : UTF-8 Plain Text
Language : Polish
Default : Yes
Forced : No 